<?xml version="1.0" standalone="no"?>
<!DOCTYPE svg PUBLIC "-//W3C//DTD SVG 20010904//EN"
 "http://www.w3.org/TR/2001/REC-SVG-20010904/DTD/svg10.dtd">
<svg version="1.0" xmlns="http://www.w3.org/2000/svg"
 width="512.000000pt" height="512.000000pt" viewBox="0 0 512.000000 512.000000"
 preserveAspectRatio="xMidYMid meet">

<g transform="translate(0.000000,512.000000) scale(0.100000,-0.100000)"
fill="#000000" stroke="none">
<path d="M1051 4949 c-159 -27 -294 -165 -321 -330 -14 -88 -14 -4030 0 -4118
28 -169 162 -303 331 -331 88 -14 2910 -14 2998 0 169 28 303 162 331 331 14
89 14 4030 -1 4119 -13 84 -49 153 -111 216 -60 62 -132 99 -219 113 -80 13
-2929 13 -3008 0z m3075 -184 c30 -19 60 -49 79 -79 l30 -49 0 -1917 0 -1917
-30 -49 c-19 -30 -49 -60 -79 -79 l-49 -30 -1517 0 -1517 0 -49 30 c-30 19
-60 49 -79 79 l-30 49 -3 1896 c-2 1286 0 1908 7 1932 18 59 64 114 122 143
l53 26 1506 -2 1507 -3 49 -30z m-3180 -4237 c29 -15 80 -32 115 -38 88 -14
2910 -14 2998 0 35 6 86 23 115 38 28 15 54 28 59 30 14 7 6 -54 -14 -98 -27
-60 -54 -88 -114 -116 l-50 -24 -1495 0 -1495 0 -50 24 c-60 28 -87 56 -114
116 -20 44 -28 105 -13 98 4 -2 30 -15 58 -30z"/>
<path d="M1069 4451 l-29 -29 0 -501 0 -500 24 -28 24 -28 1471 0 1470 0 23
23 23 23 0 510 0 511 -28 24 -28 24 -1460 0 -1461 0 -29 -29z m2851 -531 l0
-400 -1360 0 -1360 0 0 400 0 400 1360 0 1360 0 0 -400z"/>
<path d="M3537 4226 c-62 -17 -116 -61 -147 -122 -23 -45 -25 -59 -25 -184 0
-126 2 -139 26 -185 87 -171 330 -172 418 -2 20 39 25 67 29 150 3 60 -1 126
-8 160 -28 136 -161 219 -293 183z m120 -168 c21 -20 23 -29 23 -137 0 -104
-2 -117 -22 -138 -28 -30 -83 -31 -115 -1 -21 20 -23 29 -23 137 0 104 2 117
22 138 28 30 83 31 115 1z"/>
<path d="M1069 3011 l-29 -29 0 -261 0 -260 24 -28 24 -28 271 0 c268 0 271 0
293 23 23 22 23 25 23 293 l0 271 -28 24 -28 24 -260 0 -261 0 -29 -29z m451
-291 l0 -160 -160 0 -160 0 0 160 0 160 160 0 160 0 0 -160z"/>
<path d="M1869 3011 l-29 -29 0 -261 0 -260 24 -28 24 -28 271 0 c268 0 271 0
293 23 23 22 23 25 23 293 l0 271 -28 24 -28 24 -260 0 -261 0 -29 -29z m451
-291 l0 -160 -160 0 -160 0 0 160 0 160 160 0 160 0 0 -160z"/>
<path d="M2669 3011 l-29 -29 0 -261 0 -260 24 -28 24 -28 271 0 c268 0 271 0
293 23 23 22 23 25 23 293 l0 271 -28 24 -28 24 -260 0 -261 0 -29 -29z m451
-291 l0 -160 -160 0 -160 0 0 160 0 160 160 0 160 0 0 -160z"/>
<path d="M3469 3011 l-29 -29 0 -261 0 -260 24 -28 24 -28 271 0 c268 0 271 0
293 23 23 22 23 25 23 293 l0 271 -28 24 -28 24 -260 0 -261 0 -29 -29z m451
-291 l0 -160 -160 0 -160 0 0 160 0 160 160 0 160 0 0 -160z"/>
<path d="M1069 2211 l-29 -29 0 -261 0 -260 24 -28 24 -28 271 0 c268 0 271 0
293 23 23 22 23 25 23 293 l0 271 -28 24 -28 24 -260 0 -261 0 -29 -29z m451
-291 l0 -160 -160 0 -160 0 0 160 0 160 160 0 160 0 0 -160z"/>
<path d="M1869 2211 l-29 -29 0 -261 0 -260 24 -28 24 -28 271 0 c268 0 271 0
293 23 23 22 23 25 23 293 l0 271 -28 24 -28 24 -260 0 -261 0 -29 -29z m451
-291 l0 -160 -160 0 -160 0 0 160 0 160 160 0 160 0 0 -160z"/>
<path d="M2669 2211 l-29 -29 0 -261 0 -260 24 -28 24 -28 271 0 c268 0 271 0
293 23 23 22 23 25 23 293 l0 271 -28 24 -28 24 -260 0 -261 0 -29 -29z m451
-291 l0 -160 -160 0 -160 0 0 160 0 160 160 0 160 0 0 -160z"/>
<path d="M3469 2211 l-29 -29 0 -661 0 -660 24 -28 24 -28 271 0 c268 0 271 0
293 23 l23 23 0 670 0 671 -28 24 -28 24 -260 0 -261 0 -29 -29z m451 -691 l0
-560 -160 0 -160 0 0 560 0 560 160 0 160 0 0 -560z"/>
<path d="M1069 1411 l-29 -29 0 -261 0 -260 24 -28 24 -28 271 0 c268 0 271 0
293 23 23 22 23 25 23 293 l0 271 -28 24 -28 24 -260 0 -261 0 -29 -29z m451
-291 l0 -160 -160 0 -160 0 0 160 0 160 160 0 160 0 0 -160z"/>
<path d="M1869 1411 l-29 -29 0 -261 0 -260 24 -28 24 -28 271 0 c268 0 271 0
293 23 23 22 23 25 23 293 l0 271 -28 24 -28 24 -260 0 -261 0 -29 -29z m451
-291 l0 -160 -160 0 -160 0 0 160 0 160 160 0 160 0 0 -160z"/>
<path d="M2669 1411 l-29 -29 0 -261 0 -260 24 -28 24 -28 271 0 c268 0 271 0
293 23 23 22 23 25 23 293 l0 271 -28 24 -28 24 -260 0 -261 0 -29 -29z m451
-291 l0 -160 -160 0 -160 0 0 160 0 160 160 0 160 0 0 -160z"/>
</g>
</svg>
